<?xml version="1.0" encoding="UTF-8" standalone="no"?>
<!-- Created with Inkscape (http://www.inkscape.org/) -->

<svg
   width="1920"
   height="1080"
   viewBox="0 0 1920 1080"
   version="1.1"
   id="svg5"
   inkscape:version="1.2.1 (9c6d41e410, 2022-07-14)"
   sodipodi:docname="dibujo.svg"
   xmlns:inkscape="http://www.inkscape.org/namespaces/inkscape"
   xmlns:sodipodi="http://sodipodi.sourceforge.net/DTD/sodipodi-0.dtd"
   xmlns="http://www.w3.org/2000/svg"
   xmlns:svg="http://www.w3.org/2000/svg">
  <sodipodi:namedview
     id="namedview7"
     pagecolor="#ffffff"
     bordercolor="#000000"
     borderopacity="0.25"
     inkscape:showpageshadow="2"
     inkscape:pageopacity="0.0"
     inkscape:pagecheckerboard="0"
     inkscape:deskcolor="#d1d1d1"
     inkscape:document-units="px"
     showgrid="false"
     inkscape:zoom="0.31510417"
     inkscape:cx="2846.6777"
     inkscape:cy="1405.8843"
     inkscape:window-width="2560"
     inkscape:window-height="1377"
     inkscape:window-x="1912"
     inkscape:window-y="-8"
     inkscape:window-maximized="1"
     inkscape:current-layer="layer1" />
  <defs
     id="defs2" />
  <g
     inkscape:label="Capa 1"
     inkscape:groupmode="layer"
     id="layer1"
     style="display:inline">
    <g
       aria-label="Welcome"
       id="text113"
       style="font-size:400px">
      <path
         d="M 397.13436,672.79346 H 360.80624 L 305.14217,485.68408 q -12.30468,-41.79687 -14.45312,-56.44531 -3.125,22.46094 -13.67188,57.61719 l -53.90625,185.9375 H 186.7828 L 111.19686,387.24658 h 37.5 l 44.33594,174.41406 q 8.98437,34.17969 13.67187,67.96875 4.29688,-32.03125 15.23438,-70.11718 l 50.39062,-172.26563 h 37.10938 l 52.53906,173.63281 q 10.15625,33.78907 15.625,68.75 3.125,-26.95312 13.86719,-68.35937 l 44.14062,-174.02344 h 37.5 z"
         id="path280" />
      <path
         d="m 599.67342,676.69971 q -48.24218,0 -75.78125,-29.10157 -27.34375,-29.29687 -27.34375,-80.46875 0,-51.5625 25.58594,-82.03125 25.58594,-30.66406 69.14063,-30.66406 40.42968,0 64.45312,26.17188 24.02344,25.97656 24.02344,70.50781 v 21.28906 h -146.875 q 0.97656,36.52344 18.55469,55.46875 17.57812,18.94531 49.80468,18.94531 17.1875,0 32.61719,-2.92968 15.42969,-3.125 36.13281,-11.91407 v 30.85938 q -17.77343,7.61719 -33.39843,10.74219 -15.625,3.125 -36.91407,3.125 z m -8.78906,-193.55469 q -25.19531,0 -39.84375,16.21094 -14.64844,16.21093 -17.38281,45.11718 h 109.17969 q -0.39063,-30.07812 -13.86719,-45.70312 -13.47656,-15.625 -38.08594,-15.625 z"
         id="path282" />
      <path
         d="M 769.20467,672.79346 H 734.04842 V 368.88721 h 35.15625 z"
         id="path284" />
      <path
         d="m 923.11092,676.69971 q -46.28906,0 -72.07031,-28.32032 -25.78125,-28.51562 -25.78125,-81.64062 0,-53.90625 25.97656,-83.00781 26.17188,-29.29688 74.41407,-29.29688 15.625,0 30.85937,3.32031 15.42969,3.125 25.39063,8.20313 l -10.74219,29.29687 q -27.14844,-10.15625 -46.28906,-10.15625 -32.42188,0 -47.85157,20.50782 -15.42968,20.3125 -15.42968,60.74218 0,38.86719 15.42968,59.57032 15.42969,20.50781 45.70313,20.50781 28.32031,0 55.66406,-12.5 v 31.25 q -22.26562,11.52344 -55.27344,11.52344 z"
         id="path286" />
      <path
         d="m 1215.4937,565.17627 q 0,52.53906 -26.5625,82.03125 -26.5625,29.49219 -73.4375,29.49219 -29.1015,0 -51.5625,-13.47657 -22.4609,-13.67187 -34.5703,-39.0625 -12.1094,-25.39062 -12.1094,-58.98437 0,-52.34375 26.1719,-81.44531 26.1719,-29.29688 73.4375,-29.29688 45.3125,0 71.875,29.88281 26.7578,29.6875 26.7578,80.85938 z m -161.914,0 q 0,40.42969 15.8203,61.52344 16.0156,20.89843 47.0703,20.89843 30.6641,0 46.6797,-20.89843 16.0156,-21.09375 16.0156,-61.52344 0,-40.42969 -16.2109,-60.74219 -16.0157,-20.50781 -47.0703,-20.50781 -62.3047,0 -62.3047,81.25 z"
         id="path288" />
      <path
         d="M 1544.0094,672.79346 V 534.70752 q 0,-50.78125 -43.5547,-50.78125 -29.8828,0 -43.9453,17.38281 -14.0625,17.38281 -14.0625,53.125 v 118.35938 h -34.961 V 534.70752 q 0,-25.39063 -10.7422,-38.08594 -10.5468,-12.69531 -33.2031,-12.69531 -29.6875,0 -43.5547,18.16406 -13.6719,18.16406 -13.6719,59.57031 v 111.13282 h -35.1562 V 458.34033 h 28.3203 l 5.2734,29.29688 h 1.9532 q 9.1797,-15.625 25.7812,-24.41407 16.7969,-8.78906 37.5,-8.78906 50.3906,0 65.625,35.9375 h 1.9531 q 10.3516,-17.1875 28.125,-26.5625 17.9688,-9.375 40.625,-9.375 36.3282,0 54.2969,18.75 18.1641,18.75 18.1641,59.96094 v 139.64844 z"
         id="path290" />
      <path
         d="m 1736.3922,676.69971 q -48.2422,0 -75.7813,-29.10157 -27.3437,-29.29687 -27.3437,-80.46875 0,-51.5625 25.5859,-82.03125 25.5859,-30.66406 69.1406,-30.66406 40.4297,0 64.4532,26.17188 24.0234,25.97656 24.0234,70.50781 v 21.28906 h -146.875 q 0.9766,36.52344 18.5547,55.46875 17.5781,18.94531 49.8047,18.94531 17.1875,0 32.6172,-2.92968 15.4296,-3.125 36.1328,-11.91407 v 30.85938 q -17.7735,7.61719 -33.3985,10.74219 -15.625,3.125 -36.914,3.125 z m -8.7891,-193.55469 q -25.1953,0 -39.8437,16.21094 -14.6485,16.21093 -17.3829,45.11718 h 109.1797 q -0.3906,-30.07812 -13.8672,-45.70312 -13.4765,-15.625 -38.0859,-15.625 z"
         id="path292" />
    </g>
  </g>
</svg>
