<?xml version="1.0" encoding="UTF-8" standalone="no"?>
<!-- Created with Inkscape (http://www.inkscape.org/) -->

<svg
   width="1920"
   height="1080"
   viewBox="0 0 1920 1080"
   version="1.1"
   id="svg5"
   sodipodi:docname="dibujo3.svg"
   inkscape:version="1.2.1 (9c6d41e410, 2022-07-14)"
   xmlns:inkscape="http://www.inkscape.org/namespaces/inkscape"
   xmlns:sodipodi="http://sodipodi.sourceforge.net/DTD/sodipodi-0.dtd"
   xmlns="http://www.w3.org/2000/svg"
   xmlns:svg="http://www.w3.org/2000/svg">
  <sodipodi:namedview
     id="namedview7"
     pagecolor="#ffffff"
     bordercolor="#000000"
     borderopacity="0.25"
     inkscape:showpageshadow="2"
     inkscape:pageopacity="0.0"
     inkscape:pagecheckerboard="0"
     inkscape:deskcolor="#d1d1d1"
     inkscape:document-units="px"
     showgrid="false"
     inkscape:zoom="0.31510417"
     inkscape:cx="2846.6777"
     inkscape:cy="1913.6529"
     inkscape:window-width="2560"
     inkscape:window-height="1377"
     inkscape:window-x="1912"
     inkscape:window-y="-8"
     inkscape:window-maximized="1"
     inkscape:current-layer="layer1" />
  <defs
     id="defs2" />
  <g
     inkscape:label="Capa 1"
     inkscape:groupmode="layer"
     id="layer1"
     style="display:inline">
    <path
       id="path436"
       style="font-weight:bold;font-size:400px;font-family:Roboto;-inkscape-font-specification:'Roboto Bold'"
       d="M 670.25586 417.22266 L 670.25586 717.22266 L 726.89648 717.22266 L 726.89648 417.22266 L 670.25586 417.22266 z M 92.521484 432.84766 L 155.60742 717.22266 L 214.5918 717.22266 L 260.88086 526.98828 L 307.16992 717.22266 L 366.1543 717.22266 L 429.24023 432.84766 L 370.8418 432.84766 L 332.56055 635.19141 L 285.88086 432.84766 L 236.27148 432.84766 L 189.39648 634.80078 L 150.91992 432.84766 L 92.521484 432.84766 z M 542.13086 501.98828 C 522.86005 501.98828 505.67251 506.54559 490.56836 515.66016 C 475.59442 524.64453 464.00585 537.53517 455.80273 554.33203 C 447.59962 570.99868 443.49805 589.94403 443.49805 611.16797 L 443.49805 616.63672 C 443.49805 648.27731 453.19859 673.60288 472.59961 692.61328 C 492.13084 711.62368 517.39131 721.12891 548.38086 721.12891 C 565.95897 721.12891 581.97462 717.80858 596.42773 711.16797 C 610.88085 704.39714 622.3392 695.02212 630.80273 683.04297 L 603.06836 651.98828 C 590.82879 667.74347 573.83657 675.62109 552.0918 675.62109 C 538.02931 675.62109 526.37564 671.45442 517.13086 663.12109 C 508.01629 654.78777 502.54753 643.72003 500.72461 629.91797 L 635.29492 629.91797 L 635.29492 606.87109 C 635.29492 573.40759 626.96157 547.56118 610.29492 529.33203 C 593.75848 511.10288 571.03708 501.98828 542.13086 501.98828 z M 861.85742 501.98828 C 831.64912 501.98828 807.88606 511.68882 790.56836 531.08984 C 773.25067 550.49086 764.5918 576.46748 764.5918 609.01953 L 764.5918 612.73047 C 764.5918 646.5846 773.31577 673.14715 790.76367 692.41797 C 808.21157 711.55857 832.03974 721.12891 862.24805 721.12891 C 878.39386 721.12891 893.10743 717.87369 906.38867 711.36328 C 919.80011 704.72266 930.34701 695.47785 938.0293 683.62891 C 945.71158 671.64975 949.61784 658.49868 949.74805 644.17578 L 896.81836 644.17578 C 896.55795 653.68098 893.17252 661.29818 886.66211 667.02734 C 880.1517 672.7565 871.68814 675.62109 861.27148 675.62109 C 847.72983 675.62109 837.63867 670.86848 830.99805 661.36328 C 824.35743 651.85808 821.03711 636.23305 821.03711 614.48828 L 821.03711 608.62891 C 821.03711 587.14455 824.35743 571.64973 830.99805 562.14453 C 837.76887 552.50912 847.72983 547.69141 860.88086 547.69141 C 871.55794 547.69141 880.1517 551.14193 886.66211 558.04297 C 893.17252 564.8138 896.55795 573.66798 896.81836 584.60547 L 949.74805 584.60547 C 949.48763 559.60549 941.3496 539.61848 925.33398 524.64453 C 909.44858 509.54038 888.28968 501.98828 861.85742 501.98828 z M 1072.9902 501.98828 C 1052.9382 501.98828 1035.2949 506.48048 1020.0605 515.46484 C 1004.9564 524.44921 993.36783 537.14454 985.29492 553.55078 C 977.22201 569.95701 973.18555 588.64194 973.18555 609.60547 L 973.18555 612.14453 C 973.18555 645.73824 982.23504 672.3008 1000.334 691.83203 C 1018.5631 711.36326 1042.9121 721.12891 1073.3809 721.12891 C 1103.8496 721.12891 1128.1335 711.36326 1146.2324 691.83203 C 1164.3314 672.17059 1173.3809 646.12887 1173.3809 613.70703 L 1172.9902 599.25391 C 1170.9069 569.30602 1160.8157 545.60806 1142.7168 528.16016 C 1124.7481 510.71226 1101.5059 501.98828 1072.9902 501.98828 z M 1323.5762 501.98828 C 1298.0553 501.98828 1277.8079 511.16799 1262.834 529.52734 L 1261.0762 505.89453 L 1208.1465 505.89453 L 1208.1465 717.22266 L 1264.5918 717.22266 L 1264.5918 567.80859 C 1271.7533 554.52736 1283.3418 547.88672 1299.3574 547.88672 C 1310.9459 547.88672 1319.1491 550.6211 1323.9668 556.08984 C 1328.7845 561.55859 1331.1934 570.41278 1331.1934 582.65234 L 1331.1934 717.22266 L 1387.6387 717.22266 L 1387.4434 572.10547 C 1393.9538 555.95965 1405.6726 547.88672 1422.5996 547.88672 C 1434.4486 547.88672 1442.7168 550.68621 1447.4043 556.28516 C 1452.0918 561.7539 1454.4355 570.47788 1454.4355 582.45703 L 1454.4355 717.22266 L 1511.0762 717.22266 L 1511.0762 582.26172 C 1511.0762 555.43883 1505.4772 535.3867 1494.2793 522.10547 C 1483.0814 508.69402 1466.0241 501.98828 1443.1074 501.98828 C 1415.6335 501.98828 1394.4746 512.73049 1379.6309 534.21484 C 1369.4746 512.73049 1350.7897 501.98828 1323.5762 501.98828 z M 1645.4512 501.98828 C 1626.1803 501.98828 1608.9928 506.54559 1593.8887 515.66016 C 1578.9147 524.64453 1567.3261 537.53517 1559.123 554.33203 C 1550.9199 570.99868 1546.8184 589.94403 1546.8184 611.16797 L 1546.8184 616.63672 C 1546.8184 648.27731 1556.5189 673.60288 1575.9199 692.61328 C 1595.4512 711.62368 1620.7116 721.12891 1651.7012 721.12891 C 1669.2793 721.12891 1685.2949 717.80858 1699.748 711.16797 C 1714.2011 704.39714 1725.6595 695.02212 1734.123 683.04297 L 1706.3887 651.98828 C 1694.1491 667.74347 1677.1569 675.62109 1655.4121 675.62109 C 1641.3497 675.62109 1629.696 671.45442 1620.4512 663.12109 C 1611.3366 654.78777 1605.8679 643.72003 1604.0449 629.91797 L 1738.6152 629.91797 L 1738.6152 606.87109 C 1738.6152 573.40759 1730.2819 547.56118 1713.6152 529.33203 C 1697.0789 511.10288 1674.3574 501.98828 1645.4512 501.98828 z M 541.93555 547.69141 C 553.9147 547.69141 563.15951 551.14193 569.66992 558.04297 C 576.18033 564.8138 579.56575 574.44923 579.82617 586.94922 L 579.82617 591.44141 L 501.31055 591.44141 C 503.26367 577.37892 507.69076 566.5716 514.5918 559.01953 C 521.62304 551.46745 530.73764 547.69141 541.93555 547.69141 z M 1072.9902 547.69141 C 1086.9226 547.69141 1097.7299 553.09506 1105.4121 563.90234 C 1113.0944 574.70963 1116.9355 589.94403 1116.9355 609.60547 C 1116.9355 632.65232 1113.0944 649.44923 1105.4121 659.99609 C 1097.7299 670.41275 1087.0527 675.62109 1073.3809 675.62109 C 1059.3183 675.62109 1048.511 670.34764 1040.959 659.80078 C 1033.4069 649.12371 1029.6309 633.75909 1029.6309 613.70703 C 1029.6309 591.18101 1033.4069 574.57942 1040.959 563.90234 C 1048.511 553.09506 1059.1882 547.69141 1072.9902 547.69141 z M 1645.2559 547.69141 C 1657.235 547.69141 1666.4798 551.14193 1672.9902 558.04297 C 1679.5007 564.8138 1682.8861 574.44923 1683.1465 586.94922 L 1683.1465 591.44141 L 1604.6309 591.44141 C 1606.584 577.37892 1611.0111 566.5716 1617.9121 559.01953 C 1624.9434 551.46745 1634.0579 547.69141 1645.2559 547.69141 z " />
  </g>
</svg>
