<?xml version="1.0" encoding="UTF-8" standalone="no"?>
<!-- Created with Inkscape (http://www.inkscape.org/) -->

<svg
   width="1920"
   height="1080"
   viewBox="0 0 1920 1080"
   version="1.1"
   id="svg5"
   sodipodi:docname="dibujo2.svg"
   inkscape:version="1.2.1 (9c6d41e410, 2022-07-14)"
   xmlns:inkscape="http://www.inkscape.org/namespaces/inkscape"
   xmlns:sodipodi="http://sodipodi.sourceforge.net/DTD/sodipodi-0.dtd"
   xmlns="http://www.w3.org/2000/svg"
   xmlns:svg="http://www.w3.org/2000/svg">
  <sodipodi:namedview
     id="namedview7"
     pagecolor="#ffffff"
     bordercolor="#000000"
     borderopacity="0.25"
     inkscape:showpageshadow="2"
     inkscape:pageopacity="0.0"
     inkscape:pagecheckerboard="0"
     inkscape:deskcolor="#d1d1d1"
     inkscape:document-units="px"
     showgrid="false"
     inkscape:zoom="0.31510417"
     inkscape:cx="2846.6777"
     inkscape:cy="1405.8843"
     inkscape:window-width="2560"
     inkscape:window-height="1377"
     inkscape:window-x="1912"
     inkscape:window-y="-8"
     inkscape:window-maximized="1"
     inkscape:current-layer="layer1" />
  <defs
     id="defs2" />
  <g
     inkscape:label="Capa 1"
     inkscape:groupmode="layer"
     id="layer1"
     style="display:inline">
    <path
       id="path280"
       style="font-size:400px"
       d="m 727.70172,426.01069 v 303.90625 h 35.15625 V 426.01069 Z m -622.85156,18.35937 75.58593,285.54688 h 36.32813 l 53.90625,-185.9375 c 7.03124,-23.43748 11.58854,-42.64324 13.67187,-57.61719 1.4323,9.76562 6.25002,28.58076 14.45313,56.44531 l 55.66406,187.10938 h 36.32813 l 75.97656,-285.54688 h -37.5 L 385.12359,618.3935 c -7.16145,27.60414 -11.78385,50.39065 -13.86718,68.35938 -3.64583,-23.30727 -8.85418,-46.22398 -15.625,-68.75 L 303.09234,444.37006 h -37.10937 l -50.39063,172.26563 c -7.29166,25.39059 -12.36979,48.76304 -15.23437,70.11719 -3.125,-22.52602 -7.6823,-45.18232 -13.67188,-67.96875 L 142.35016,444.37006 Z m 480.07812,67.1875 c -29.03643,0 -52.08335,10.22138 -69.14062,30.66407 -17.05728,20.31248 -25.58594,47.65628 -25.58594,82.03125 0,34.11455 9.1146,60.93752 27.34375,80.46875 18.35936,19.40102 43.61983,29.10156 75.78125,29.10156 14.1927,0 26.4974,-1.04167 36.91406,-3.125 10.41666,-2.08333 21.5495,-5.66407 33.39844,-10.74219 v -30.85937 c -13.80207,5.85937 -25.84636,9.83073 -36.13281,11.91406 -10.28645,1.95312 -21.15887,2.92969 -32.61719,2.92969 -21.48435,0 -38.08595,-6.31512 -49.80469,-18.94532 -11.71874,-12.63019 -17.90365,-31.11981 -18.55469,-55.46875 h 146.875 v -21.28906 c 0,-29.68747 -8.00782,-53.19012 -24.02343,-70.50781 -16.01562,-17.4479 -37.50004,-26.17188 -64.45313,-26.17188 z m 334.375,0 c -32.16143,0 -56.96616,9.76564 -74.41406,29.29688 -17.31769,19.40102 -25.97656,47.07035 -25.97656,83.00781 0,35.41663 8.59376,62.63023 25.78125,81.64063 17.18748,18.88019 41.21097,28.32031 72.07031,28.32031 22.00519,0 40.4297,-3.84115 55.27344,-11.52344 v -31.25 c -18.22915,8.33333 -36.78388,12.5 -55.66407,12.5 -20.18227,0 -35.41667,-6.83595 -45.70312,-20.50781 -10.28644,-13.80207 -15.42969,-33.65888 -15.42969,-59.57031 0,-26.9531 5.14325,-47.20054 15.42969,-60.74219 10.28645,-13.67187 26.237,-20.50781 47.85156,-20.50781 12.7604,0 28.19012,3.38542 46.28906,10.15625 L 975.55328,523.081 c -6.64062,-3.38542 -15.10417,-6.11979 -25.39062,-8.20312 -10.15624,-2.21354 -20.44272,-3.32032 -30.85938,-3.32032 z m 191.21092,0 c -31.5103,0 -55.9896,9.76564 -73.4375,29.29688 -17.4479,19.40102 -26.1718,46.54951 -26.1718,81.44531 0,22.39581 4.0364,42.05731 12.1093,58.98438 8.073,16.92707 19.5964,29.94793 34.5703,39.0625 14.974,8.98437 32.1616,13.47656 51.5625,13.47656 31.25,0 55.7292,-9.83075 73.4375,-29.49219 17.7084,-19.66144 26.5625,-47.00524 26.5625,-82.03125 0,-34.11455 -8.9193,-61.06773 -26.7578,-80.85937 -17.7083,-19.92186 -41.6667,-29.88282 -71.875,-29.88282 z m 253.125,0 c -13.802,0 -26.302,2.9297 -37.5,8.78907 -11.0676,5.85937 -19.6614,13.9974 -25.7812,24.41406 h -1.9531 l -5.2735,-29.29688 h -28.3203 v 214.45313 h 35.1563 V 618.78413 c 0,-27.60414 4.5572,-47.46096 13.6718,-59.57032 9.2448,-12.10936 23.7631,-18.16406 43.5547,-18.16406 15.1042,0 26.1719,4.23178 33.2031,12.69531 7.1615,8.46354 10.7422,21.15887 10.7422,38.08594 v 138.08594 h 34.961 V 611.55756 c 0,-23.8281 4.6875,-41.53647 14.0625,-53.125 9.375,-11.58852 24.0234,-17.38281 43.9453,-17.38281 29.0364,0 43.5547,16.92712 43.5547,50.78125 v 138.08594 h 34.7656 V 590.2685 c 0,-27.47393 -6.0547,-47.46095 -18.1641,-59.96094 -11.9791,-12.49998 -30.0781,-18.75 -54.2968,-18.75 -15.1042,0 -28.6459,3.12501 -40.625,9.375 -11.849,6.25 -21.224,15.10418 -28.125,26.5625 h -1.9532 c -10.1562,-23.95831 -32.0313,-35.9375 -65.625,-35.9375 z m 358.0078,0 c -29.0364,0 -52.0833,10.22138 -69.1406,30.66407 -17.0572,20.31248 -25.5859,47.65628 -25.5859,82.03125 0,34.11455 9.1146,60.93752 27.3437,80.46875 18.3594,19.40102 43.6198,29.10156 75.7813,29.10156 14.1926,0 26.4974,-1.04167 36.914,-3.125 10.4167,-2.08333 21.5495,-5.66407 33.3985,-10.74219 v -30.85937 c -13.8021,5.85937 -25.8464,9.83073 -36.1328,11.91406 -10.2865,1.95312 -21.1589,2.92969 -32.6172,2.92969 -21.4844,0 -38.086,-6.31512 -49.8047,-18.94532 -11.7187,-12.63019 -17.9036,-31.11981 -18.5547,-55.46875 h 146.875 v -21.28906 c 0,-29.68747 -8.0079,-53.19012 -24.0234,-70.50781 -16.0157,-17.4479 -37.5001,-26.17188 -64.4532,-26.17188 z M 584.53766,540.2685 c 16.40623,0 29.10157,5.20834 38.08593,15.625 8.98437,10.41666 13.60677,25.65107 13.86719,45.70313 H 527.31109 c 1.82291,-19.27082 7.6172,-34.30992 17.38282,-45.11719 9.76561,-10.80728 23.04689,-16.21094 39.84375,-16.21094 z m 1136.71874,0 c 16.4063,0 29.1016,5.20834 38.086,15.625 8.9843,10.41666 13.6067,25.65107 13.8671,45.70313 h -109.1796 c 1.8229,-19.27082 7.6171,-34.30992 17.3828,-45.11719 9.7656,-10.80728 23.0469,-16.21094 39.8437,-16.21094 z m -611.7187,0.78125 c 20.703,0 36.3932,6.83595 47.0703,20.50781 10.8072,13.54166 16.2109,33.78909 16.2109,60.74219 0,26.9531 -5.3386,47.46095 -16.0156,61.52344 -10.6771,13.93227 -26.237,20.89844 -46.6797,20.89844 -20.7031,0 -36.3933,-6.96617 -47.0703,-20.89844 -10.5469,-14.06249 -15.8203,-34.57034 -15.8203,-61.52344 0,-54.16661 20.7682,-81.25 62.3047,-81.25 z" />
  </g>
</svg>
