<?xml version="1.0" encoding="UTF-8" standalone="no"?>
<!-- Created with Inkscape (http://www.inkscape.org/) -->

<svg
   width="1920"
   height="1080"
   viewBox="0 0 1920 1080"
   version="1.1"
   id="svg5"
   sodipodi:docname="dibujo4.svg"
   inkscape:version="1.2.1 (9c6d41e410, 2022-07-14)"
   xmlns:inkscape="http://www.inkscape.org/namespaces/inkscape"
   xmlns:sodipodi="http://sodipodi.sourceforge.net/DTD/sodipodi-0.dtd"
   xmlns="http://www.w3.org/2000/svg"
   xmlns:svg="http://www.w3.org/2000/svg">
  <sodipodi:namedview
     id="namedview7"
     pagecolor="#ffffff"
     bordercolor="#000000"
     borderopacity="0.25"
     inkscape:showpageshadow="2"
     inkscape:pageopacity="0.0"
     inkscape:pagecheckerboard="0"
     inkscape:deskcolor="#d1d1d1"
     inkscape:document-units="px"
     showgrid="false"
     inkscape:zoom="0.31510417"
     inkscape:cx="2846.6777"
     inkscape:cy="926.67769"
     inkscape:window-width="2560"
     inkscape:window-height="1377"
     inkscape:window-x="1912"
     inkscape:window-y="-8"
     inkscape:window-maximized="1"
     inkscape:current-layer="svg5" />
  <defs
     id="defs2" />
  <text
     xml:space="preserve"
     style="font-style:normal;font-variant:normal;font-weight:bold;font-stretch:normal;font-size:1141.00001869px;font-family:Roboto;-inkscape-font-specification:'Roboto Bold';fill:#000000;stroke-width:2.66268"
     x="-275.98746"
     y="644.29254"
     id="text518"
     transform="scale(0.71879097,1.391225)"><tspan
       sodipodi:role="line"
       id="tspan516"
       x="-275.98746"
       y="644.29254"
       style="font-style:normal;font-variant:normal;font-weight:bold;font-stretch:normal;font-family:Impact;-inkscape-font-specification:'Impact Bold';baseline-shift:sub;stroke-width:2.66268;font-size:1141.00001869px" /></text>
  <path
     id="path551"
     style="font-weight:bold;font-size:639.585px;font-family:Impact;-inkscape-font-specification:'Impact Bold';stroke-width:0.560547"
     d="M 944.50977 214.21484 C 922.24523 214.21484 902.49997 220.48354 885.27344 233.01953 C 868.20941 245.28881 854.80168 262.2255 845.05078 283.83008 C 835.46244 305.43466 829.69433 327.97172 827.74414 351.44336 C 825.794 374.64828 824.81836 409.58905 824.81836 456.26562 L 824.81836 645.50586 C 824.81836 708.986 827.9881 756.59783 834.32617 788.33789 C 840.66419 819.81123 853.58418 844.48305 873.08594 862.35352 C 892.5877 880.22397 917.37036 889.1582 947.43555 889.1582 C 976.36318 889.1582 1000.66 878.62387 1020.3242 857.55273 C 1040.1511 836.4816 1052.9077 811.94149 1058.5957 783.93555 C 1064.4462 755.92961 1067.3711 708.4534 1067.3711 641.50586 L 1067.3711 616.30078 L 964.74414 616.30078 L 964.74414 697.51758 C 964.74414 732.99177 963.52362 755.53077 961.08594 765.13281 C 958.81071 774.73484 953.855 779.53516 946.2168 779.53516 C 938.25362 779.53516 933.1346 774.73484 930.85938 765.13281 C 928.58415 755.53077 927.44531 734.99287 927.44531 703.51953 L 927.44531 402.6543 C 927.44531 369.84734 928.58415 348.50939 930.85938 338.64062 C 933.1346 328.77187 938.49654 323.83789 946.94727 323.83789 C 954.42295 323.83789 959.21737 327.97182 961.33008 336.24023 C 963.60525 344.24193 964.74414 364.64616 964.74414 397.45312 L 964.74414 510.27734 L 1067.3711 510.27734 L 1067.3711 448.66406 C 1067.3711 388.11788 1064.283 343.5765 1058.1074 315.03711 C 1051.9319 286.231 1039.0119 262.22556 1019.3477 243.02148 C 999.6834 223.81741 974.73748 214.21484 944.50977 214.21484 z M 1219.9727 214.21484 C 1197.7081 214.21484 1178.2058 220.21621 1161.4668 232.21875 C 1144.7278 244.2213 1131.4017 261.42533 1121.4883 283.83008 C 1111.7374 306.23483 1105.8877 331.04031 1103.9375 358.24609 C 1102.1499 385.18514 1101.2559 431.19492 1101.2559 496.27539 L 1101.2559 607.09766 C 1101.2559 673.77848 1102.2315 720.45659 1104.1816 747.12891 C 1106.1318 773.80124 1112.2265 798.47305 1122.4648 821.14453 C 1132.7033 843.816 1146.1907 860.88637 1162.9297 872.35547 C 1179.8312 883.55784 1198.8457 889.1582 1219.9727 889.1582 C 1242.2371 889.1582 1261.7395 883.15684 1278.4785 871.1543 C 1295.2176 859.15175 1308.462 841.94772 1318.2129 819.54297 C 1328.1263 797.13821 1333.9761 772.4664 1335.7637 745.52734 C 1337.7139 718.32157 1338.6895 672.17813 1338.6895 607.09766 L 1338.6895 496.27539 C 1338.6895 429.59458 1337.7139 382.91647 1335.7637 356.24414 C 1333.8135 329.57181 1327.7209 304.89999 1317.4824 282.22852 C 1307.244 259.55703 1293.673 242.62034 1276.7715 231.41797 C 1260.0324 219.94887 1241.0995 214.21484 1219.9727 214.21484 z M 10.863281 227.81836 L 56.691406 875.55664 L 184.18555 875.55664 C 199.13689 703.52014 208.64417 590.42802 212.70703 536.2832 C 221.64534 662.97675 231.96496 776.06887 243.66602 875.55664 L 371.88867 875.55664 L 417.47461 227.81836 L 317.77148 227.81836 C 304.44528 377.71684 294.93801 530.94908 289.25 687.51562 L 278.03711 441.46289 C 272.02407 317.97002 268.28685 246.75571 266.82422 227.81836 L 160.05078 227.81836 C 144.93692 411.05724 135.51127 559.08817 131.77344 671.91211 L 121.04883 453.86523 L 110.56641 227.81836 L 10.863281 227.81836 z M 437.95117 227.81836 L 437.95117 875.55664 L 615.90625 875.55664 L 615.90625 745.92773 L 540.58008 745.92773 L 540.58008 603.49805 L 604.69141 603.49805 L 604.69141 480.27148 L 540.58008 480.27148 L 540.58008 357.44531 L 609.08008 357.44531 L 609.08008 227.81836 L 437.95117 227.81836 z M 645.40234 227.81836 L 645.40234 875.55664 L 810.43555 875.55664 L 810.43555 745.92773 L 748.0293 745.92773 L 748.0293 227.81836 L 645.40234 227.81836 z M 1376.9629 227.81836 L 1376.9629 875.55664 L 1466.6699 875.55664 L 1466.6699 448.26562 L 1504.4551 875.55664 L 1568.0801 875.55664 L 1603.9141 438.26172 L 1603.9141 875.55664 L 1693.623 875.55664 L 1693.623 227.81836 L 1559.791 227.81836 L 1536.3887 530.28125 L 1522.25 365.44727 C 1517.8621 312.63606 1513.7187 266.75995 1509.8184 227.81836 L 1376.9629 227.81836 z M 1734.8203 227.81836 L 1734.8203 875.55664 L 1912.7734 875.55664 L 1912.7734 745.92773 L 1837.4473 745.92773 L 1837.4473 603.49805 L 1901.5605 603.49805 L 1901.5605 480.27148 L 1837.4473 480.27148 L 1837.4473 357.44531 L 1905.9473 357.44531 L 1905.9473 227.81836 L 1734.8203 227.81836 z M 1220.4609 323.83789 C 1226.799 323.83789 1230.9424 328.10548 1232.8926 336.64062 C 1235.0053 344.90905 1236.0625 364.11418 1236.0625 394.25391 L 1236.0625 691.91602 C 1236.0625 730.05744 1235.0869 754.19655 1233.1367 764.33203 C 1231.1866 774.46751 1226.7166 779.53516 1219.7285 779.53516 C 1212.9029 779.53516 1208.5147 775.1339 1206.5645 766.33203 C 1204.7768 757.53016 1203.8848 734.32478 1203.8848 696.7168 L 1203.8848 394.25391 C 1203.8848 360.9135 1205.2646 340.90832 1208.0273 334.24023 C 1210.9526 327.30543 1215.0979 323.83789 1220.4609 323.83789 z " />
</svg>
