<svg width="545" height="96" viewBox="0 0 545 96" fill="none" xmlns="http://www.w3.org/2000/svg">
<path d="M26.1818 94L25.2172 94.2638L25.4185 95H26.1818V94ZM0.727273 0.909088V-0.0909119H-0.582875L-0.237317 1.17284L0.727273 0.909088ZM12.1818 0.909088L13.1504 0.660545L12.9576 -0.0909119H12.1818V0.909088ZM31.6364 76.7273L30.6677 76.9758L30.8606 77.7273H31.6364V76.7273ZM32.5455 76.7273V77.7273H33.3177L33.5129 76.9802L32.5455 76.7273ZM52.3636 0.909088V-0.0909119H51.5914L51.3961 0.656194L52.3636 0.909088ZM65.0909 0.909088L66.0584 0.656194L65.8631 -0.0909119H65.0909V0.909088ZM84.9091 76.7273L83.9416 76.9802L84.1369 77.7273H84.9091V76.7273ZM85.8182 76.7273V77.7273H86.594L86.7868 76.9758L85.8182 76.7273ZM105.273 0.909088V-0.0909119H104.497L104.304 0.660545L105.273 0.909088ZM116.727 0.909088L117.692 1.17284L118.037 -0.0909119H116.727V0.909088ZM91.2727 94V95H92.036L92.2373 94.2638L91.2727 94ZM79.6364 94L78.6726 94.2669L78.8757 95H79.6364V94ZM59.0909 19.8182L60.0546 19.5513L59.8516 18.8182H59.0909V19.8182ZM58.3636 19.8182V18.8182H57.603L57.3999 19.5513L58.3636 19.8182ZM37.8182 94V95H38.5789L38.7819 94.2669L37.8182 94ZM27.1464 93.7362L1.69186 0.645333L-0.237317 1.17284L25.2172 94.2638L27.1464 93.7362ZM0.727273 1.90909H12.1818V-0.0909119H0.727273V1.90909ZM11.2132 1.15763L30.6677 76.9758L32.605 76.4787L13.1504 0.660545L11.2132 1.15763ZM31.6364 77.7273H32.5455V75.7273H31.6364V77.7273ZM33.5129 76.9802L53.3311 1.16198L51.3961 0.656194L31.578 76.4744L33.5129 76.9802ZM52.3636 1.90909H65.0909V-0.0909119H52.3636V1.90909ZM64.1234 1.16198L83.9416 76.9802L85.8766 76.4744L66.0584 0.656194L64.1234 1.16198ZM84.9091 77.7273H85.8182V75.7273H84.9091V77.7273ZM86.7868 76.9758L106.241 1.15763L104.304 0.660545L84.8496 76.4787L86.7868 76.9758ZM105.273 1.90909H116.727V-0.0909119H105.273V1.90909ZM115.763 0.645333L90.3081 93.7362L92.2373 94.2638L117.692 1.17284L115.763 0.645333ZM91.2727 93H79.6364V95H91.2727V93ZM80.6001 93.7331L60.0546 19.5513L58.1272 20.0851L78.6726 94.2669L80.6001 93.7331ZM59.0909 18.8182H58.3636V20.8182H59.0909V18.8182ZM57.3999 19.5513L36.8545 93.7331L38.7819 94.2669L59.3274 20.0851L57.3999 19.5513ZM37.8182 93H26.1818V95H37.8182V93ZM134.682 91L134.156 91.8504L134.162 91.8542L134.682 91ZM123.455 78.4545L122.554 78.8896L122.557 78.8957L123.455 78.4545ZM123.455 40.7273L122.553 40.2941L122.552 40.2962L123.455 40.7273ZM134.455 27.9091L135 28.7469L135.002 28.7461L134.455 27.9091ZM161.773 25.0909L162.096 24.1447L162.096 24.1447L161.773 25.0909ZM171.455 31L170.771 31.7295L170.775 31.7333L171.455 31ZM178.409 41.7273L179.341 41.3657L179.341 41.3657L178.409 41.7273ZM181 62.7273V63.7273H182V62.7273H181ZM127.182 62.7273H126.182V63.7273H127.182V62.7273ZM127.182 53.4545V52.4545H126.182V53.4545H127.182ZM170.091 53.4545V54.4545H171.091V53.4545H170.091ZM167.727 42.9091L166.833 43.3563L166.836 43.3633L167.727 42.9091ZM161.091 35.5909L160.559 36.4379L160.563 36.4404L161.091 35.5909ZM139.909 36.0909L140.469 36.9192L140.471 36.918L139.909 36.0909ZM132.773 44.2727L131.877 43.8287L131.877 43.8287L132.773 44.2727ZM133 74.6818L132.104 75.1261L132.109 75.135L133 74.6818ZM140.682 83L140.178 83.8638L140.184 83.8673L140.682 83ZM159.727 84.6364L160.055 85.5812L160.062 85.5787L159.727 84.6364ZM165.682 81L166.376 81.7201L166.382 81.7136L165.682 81ZM169.545 74.9091L169.816 73.9463L168.932 73.6981L168.609 74.558L169.545 74.9091ZM179.909 77.8182L180.864 78.1146L181.169 77.1331L180.179 76.8554L179.909 77.8182ZM174.409 87.0909L175.124 87.7898L175.128 87.7856L174.409 87.0909ZM164.864 93.2727L165.222 94.2063L165.229 94.2038L164.864 93.2727ZM152.091 94.4545C145.514 94.4545 139.898 93.0043 135.202 90.1458L134.162 91.8542C139.223 94.9351 145.213 96.4545 152.091 96.4545V94.4545ZM135.208 90.1496C130.527 87.2533 126.91 83.217 124.352 78.0134L122.557 78.8957C125.272 84.4194 129.14 88.7467 134.156 91.8504L135.208 90.1496ZM124.355 78.0195C121.826 72.785 120.545 66.6661 120.545 59.6364H118.545C118.545 66.9097 119.871 73.3362 122.554 78.8896L124.355 78.0195ZM120.545 59.6364C120.545 52.607 121.826 46.4559 124.357 41.1584L122.552 40.2962C119.871 45.9078 118.545 52.3627 118.545 59.6364H120.545ZM124.356 41.1605C126.92 35.8259 130.47 31.6992 135 28.7469L133.909 27.0713C129.045 30.2402 125.262 34.659 122.553 40.2941L124.356 41.1605ZM135.002 28.7461C139.548 25.7736 144.868 24.2727 151 24.2727V22.2727C144.526 22.2727 138.816 23.8627 133.907 27.0721L135.002 28.7461ZM151 24.2727C154.523 24.2727 158.005 24.8595 161.449 26.0371L162.096 24.1447C158.45 22.8981 154.75 22.2727 151 22.2727V24.2727ZM161.449 26.0371C164.852 27.2005 167.958 29.0929 170.771 31.7295L172.138 30.2705C169.133 27.4526 165.784 25.4056 162.096 24.1447L161.449 26.0371ZM170.775 31.7333C173.552 34.3082 175.793 37.7472 177.477 42.0888L179.341 41.3657C177.57 36.7982 175.175 33.0858 172.134 30.2667L170.775 31.7333ZM177.477 42.0888C179.146 46.3945 180 51.7483 180 58.1818H182C182 51.585 181.126 45.9692 179.341 41.3657L177.477 42.0888ZM180 58.1818V62.7273H182V58.1818H180ZM181 61.7273H127.182V63.7273H181V61.7273ZM128.182 62.7273V53.4545H126.182V62.7273H128.182ZM127.182 54.4545H170.091V52.4545H127.182V54.4545ZM171.091 53.4545C171.091 49.3788 170.275 45.7045 168.618 42.4549L166.836 43.3633C168.331 46.2955 169.091 49.6515 169.091 53.4545H171.091ZM168.622 42.4619C166.995 39.209 164.658 36.6289 161.618 34.7414L160.563 36.4404C163.282 38.1287 165.368 40.4274 166.833 43.3563L168.622 42.4619ZM161.623 34.7439C158.592 32.8415 155.037 31.9091 151 31.9091V33.9091C154.72 33.9091 157.893 34.7646 160.559 36.4379L161.623 34.7439ZM151 31.9091C146.554 31.9091 142.655 33.0155 139.347 35.2638L140.471 36.918C143.405 34.9239 146.9 33.9091 151 33.9091V31.9091ZM139.349 35.2626C136.114 37.451 133.62 40.3111 131.877 43.8287L133.669 44.7167C135.259 41.5071 137.523 38.9126 140.469 36.9192L139.349 35.2626ZM131.877 43.8287C130.14 47.3339 129.273 51.0924 129.273 55.0909H131.273C131.273 51.3924 132.072 47.9388 133.669 44.7167L131.877 43.8287ZM129.273 55.0909V61.2727H131.273V55.0909H129.273ZM129.273 61.2727C129.273 66.6566 130.201 71.2874 132.104 75.1261L133.896 74.2376C132.163 70.7429 131.273 66.4343 131.273 61.2727H129.273ZM132.109 75.135C134.037 78.9289 136.726 81.8504 140.178 83.8638L141.186 82.1362C138.092 80.3314 135.66 77.7075 133.891 74.2287L132.109 75.135ZM140.184 83.8673C143.629 85.8452 147.609 86.8182 152.091 86.8182V84.8182C147.906 84.8182 144.28 83.9123 141.18 82.1327L140.184 83.8673ZM152.091 86.8182C155.002 86.8182 157.66 86.4113 160.055 85.5812L159.4 83.6915C157.249 84.4372 154.816 84.8182 152.091 84.8182V86.8182ZM160.062 85.5787C162.492 84.7155 164.601 83.4304 166.376 81.7201L164.988 80.2799C163.429 81.7817 161.569 82.9208 159.393 83.6941L160.062 85.5787ZM166.382 81.7136C168.164 79.9644 169.527 77.8061 170.482 75.2602L168.609 74.558C167.746 76.8606 166.533 78.7629 164.981 80.2864L166.382 81.7136ZM169.275 75.8719L179.639 78.781L180.179 76.8554L169.816 73.9463L169.275 75.8719ZM178.954 77.5218C177.91 80.8864 176.158 83.8412 173.69 86.3962L175.128 87.7856C177.812 85.0073 179.727 81.7803 180.864 78.1146L178.954 77.5218ZM173.694 86.3921C171.227 88.917 168.168 90.9032 164.499 92.3417L165.229 94.2038C169.135 92.6726 172.44 90.5375 175.124 87.7897L173.694 86.3921ZM164.505 92.3392C160.849 93.7432 156.716 94.4545 152.091 94.4545V96.4545C156.921 96.4545 161.303 95.7114 165.222 94.2063L164.505 92.3392ZM208.045 0.909088H209.045V-0.0909119H208.045V0.909088ZM208.045 94V95H209.045V94H208.045ZM197.318 94H196.318V95H197.318V94ZM197.318 0.909088V-0.0909119H196.318V0.909088H197.318ZM207.045 0.909088V94H209.045V0.909088H207.045ZM208.045 93H197.318V95H208.045V93ZM198.318 94V0.909088H196.318V94H198.318ZM197.318 1.90909H208.045V-0.0909119H197.318V1.90909ZM239.148 90.8182L238.6 91.6552L238.6 91.6552L239.148 90.8182ZM228.33 40.6818L227.429 40.2466L227.428 40.2488L228.33 40.6818ZM239.33 27.9091L239.875 28.7469L239.877 28.7461L239.33 27.9091ZM278.83 33.6364L279.622 33.027L279.622 33.027L278.83 33.6364ZM283.511 45.0909V46.0909H284.66L284.502 44.9533L283.511 45.0909ZM272.784 45.0909L271.816 45.3399L272.009 46.0909H272.784V45.0909ZM267.33 36.6364L266.664 37.3829L266.673 37.3904L267.33 36.6364ZM245.057 36.1818L245.624 37.0052L245.626 37.004L245.057 36.1818ZM237.739 45.3182L236.825 44.9107L236.824 44.914L237.739 45.3182ZM237.693 73.1818L236.773 73.5724L236.775 73.5783L237.693 73.1818ZM244.966 82.5L244.388 83.3159L244.391 83.3185L244.966 82.5ZM263.648 84.3636L263.255 83.4439L263.255 83.4439L263.648 84.3636ZM269.42 80.1818L270.176 80.8367L270.176 80.8367L269.42 80.1818ZM272.784 73.6364V72.6364H272.012L271.817 73.383L272.784 73.6364ZM283.511 73.6364L284.501 73.7819L284.669 72.6364H283.511V73.6364ZM279.011 84.7727L278.202 84.1859L278.201 84.1872L279.011 84.7727ZM269.602 92.5909L270.044 93.4881L270.047 93.4867L269.602 92.5909ZM256.057 94.4545C249.674 94.4545 244.235 92.9497 239.695 89.9812L238.6 91.6552C243.515 94.8685 249.349 96.4545 256.057 96.4545V94.4545ZM239.695 89.9812C235.133 86.9981 231.616 82.8876 229.144 77.6206L227.333 78.4703C229.953 84.0518 233.708 88.4565 238.6 91.6552L239.695 89.9812ZM229.144 77.6206C226.67 72.3493 225.42 66.3012 225.42 59.4545H223.42C223.42 66.5472 224.716 72.8931 227.333 78.4703L229.144 77.6206ZM225.42 59.4545C225.42 52.487 226.7 46.3819 229.231 41.1149L227.428 40.2488C224.747 45.8302 223.42 52.2402 223.42 59.4545H225.42ZM229.23 41.117C231.794 35.8127 235.343 31.7001 239.875 28.7469L238.784 27.0713C233.922 30.2393 230.138 34.6418 227.429 40.2466L229.23 41.117ZM239.877 28.7461C244.423 25.7736 249.743 24.2727 255.875 24.2727V22.2727C249.401 22.2727 243.691 23.8627 238.782 27.0721L239.877 28.7461ZM255.875 24.2727C260.658 24.2727 264.937 25.1579 268.729 26.908L269.567 25.092C265.48 23.2057 260.91 22.2727 255.875 22.2727V24.2727ZM268.729 26.908C272.529 28.6619 275.625 31.1079 278.037 34.2457L279.622 33.027C277.004 29.6194 273.645 26.9745 269.567 25.092L268.729 26.908ZM278.037 34.2457C280.439 37.3717 281.937 41.0246 282.521 45.2285L284.502 44.9533C283.874 40.4299 282.25 36.4465 279.622 33.027L278.037 34.2457ZM283.511 44.0909H272.784V46.0909H283.511V44.0909ZM273.753 44.8419C272.877 41.4379 270.935 38.4508 267.986 35.8823L266.673 37.3904C269.36 39.731 271.055 42.3803 271.816 45.3399L273.753 44.8419ZM267.995 35.8898C264.979 33.2018 260.962 31.9091 256.057 31.9091V33.9091C260.606 33.9091 264.104 35.1012 266.664 37.3829L267.995 35.8898ZM256.057 31.9091C251.691 31.9091 247.822 33.0515 244.488 35.3596L245.626 37.004C248.595 34.9485 252.059 33.9091 256.057 33.9091V31.9091ZM244.489 35.3585C241.197 37.628 238.647 40.8272 236.825 44.9107L238.652 45.7256C240.345 41.9303 242.674 39.0386 245.624 37.0052L244.489 35.3585ZM236.824 44.914C235.029 48.9765 234.148 53.7107 234.148 59.0909H236.148C236.148 53.9257 236.994 49.478 238.653 45.7223L236.824 44.914ZM234.148 59.0909C234.148 64.5876 235.012 69.4229 236.773 73.5724L238.614 72.7913C236.98 68.9408 236.148 64.382 236.148 59.0909H234.148ZM236.775 73.5783C238.565 77.7227 241.097 80.9836 244.388 83.3159L245.544 81.6841C242.592 79.5921 240.276 76.641 238.611 72.7854L236.775 73.5783ZM244.391 83.3185C247.728 85.6607 251.631 86.8182 256.057 86.8182V84.8182C251.998 84.8182 248.507 83.7635 245.54 81.6815L244.391 83.3185ZM256.057 86.8182C258.962 86.8182 261.628 86.3124 264.04 85.2834L263.255 83.4439C261.122 84.3542 258.727 84.8182 256.057 84.8182V86.8182ZM264.04 85.2834C266.449 84.2558 268.498 82.7728 270.176 80.8367L268.665 79.5269C267.191 81.2272 265.392 82.5321 263.255 83.4439L264.04 85.2834ZM270.176 80.8367C271.861 78.8922 273.05 76.5694 273.751 73.8897L271.817 73.383C271.185 75.7943 270.131 77.8351 268.665 79.5269L270.176 80.8367ZM272.784 74.6364H283.511V72.6364H272.784V74.6364ZM282.522 73.4909C281.939 77.4561 280.499 81.0162 278.202 84.1859L279.821 85.3596C282.312 81.9232 283.872 78.059 284.501 73.7819L282.522 73.4909ZM278.201 84.1872C275.94 87.3178 272.934 89.8219 269.158 91.6951L270.047 93.4867C274.089 91.4811 277.356 88.7731 279.822 85.3582L278.201 84.1872ZM269.161 91.6937C265.443 93.5234 261.084 94.4545 256.057 94.4545V96.4545C261.332 96.4545 266.004 95.4766 270.044 93.4881L269.161 91.6937ZM310.966 90.9545L310.43 91.7989L310.433 91.8004L310.966 90.9545ZM299.875 78.3636L298.977 78.8028L298.979 78.8068L299.875 78.3636ZM299.875 40.4091L298.978 39.9679L298.976 39.972L299.875 40.4091ZM310.966 27.7727L310.433 26.9269L310.43 26.9284L310.966 27.7727ZM344.102 27.7727L343.566 28.6171L343.569 28.6186L344.102 27.7727ZM355.193 40.4091L354.294 40.8462L354.296 40.8503L355.193 40.4091ZM355.193 78.3636L354.297 77.9205L354.295 77.9245L355.193 78.3636ZM344.102 90.9545L343.569 90.1087L343.566 90.1102L344.102 90.9545ZM339.375 82.1364L338.753 81.3533L338.753 81.3533L339.375 82.1364ZM346.239 72.4545L347.176 72.8026L347.176 72.8026L346.239 72.4545ZM346.239 46.4091L347.177 46.0634L347.177 46.0634L346.239 46.4091ZM339.375 36.6364L340.002 35.857L340.002 35.857L339.375 36.6364ZM315.739 36.6364L315.112 35.857L315.112 35.857L315.739 36.6364ZM308.875 46.4091L307.937 46.0634L307.937 46.0634L308.875 46.4091ZM308.875 72.4545L307.938 72.8026L307.938 72.8026L308.875 72.4545ZM315.739 82.1364L316.361 81.3533L316.361 81.3533L315.739 82.1364ZM327.557 94.4545C321.419 94.4545 316.078 92.9962 311.499 90.1087L310.433 91.8004C315.369 94.9129 321.088 96.4545 327.557 96.4545V94.4545ZM311.502 90.1102C306.941 87.2157 303.363 83.1629 300.771 77.9205L298.979 78.8068C301.72 84.3522 305.537 88.6934 310.43 91.7989L311.502 90.1102ZM300.773 77.9245C298.216 72.6921 296.92 66.5447 296.92 59.4545H294.92C294.92 66.7886 296.261 73.2473 298.977 78.8028L300.773 77.9245ZM296.92 59.4545C296.92 52.3025 298.216 46.1091 300.774 40.8462L298.976 39.972C296.261 45.5576 294.92 52.0611 294.92 59.4545H296.92ZM300.772 40.8503C303.365 35.5775 306.942 31.5107 311.502 28.6171L310.43 26.9284C305.535 30.0348 301.719 34.3922 298.978 39.9679L300.772 40.8503ZM311.499 28.6186C316.078 25.7311 321.419 24.2727 327.557 24.2727V22.2727C321.088 22.2727 315.369 23.8143 310.433 26.9269L311.499 28.6186ZM327.557 24.2727C333.695 24.2727 339.019 25.7311 343.566 28.6171L344.638 26.9284C339.731 23.8143 334.025 22.2727 327.557 22.2727V24.2727ZM343.569 28.6186C348.157 31.5119 351.733 35.5771 354.294 40.8462L356.093 39.972C353.381 34.3926 349.562 30.0335 344.636 26.9269L343.569 28.6186ZM354.296 40.8503C356.883 46.1121 358.193 52.3041 358.193 59.4545H360.193C360.193 52.0596 358.837 45.5546 356.091 39.9679L354.296 40.8503ZM358.193 59.4545C358.193 66.5431 356.883 72.6891 354.297 77.9205L356.09 78.8068C358.837 73.2503 360.193 66.7902 360.193 59.4545H358.193ZM354.295 77.9245C351.734 83.1633 348.159 87.2145 343.569 90.1087L344.636 91.8004C349.561 88.6946 353.379 84.3518 356.092 78.8028L354.295 77.9245ZM343.566 90.1102C339.019 92.9961 333.695 94.4545 327.557 94.4545V96.4545C334.025 96.4545 339.731 94.913 344.638 91.7989L343.566 90.1102ZM327.557 86.8182C332.521 86.8182 336.694 85.5425 339.997 82.9195L338.753 81.3533C335.874 83.6393 332.169 84.8182 327.557 84.8182V86.8182ZM339.997 82.9195C343.242 80.3422 345.633 76.9593 347.176 72.8026L345.301 72.1065C343.874 75.9498 341.69 79.0214 338.753 81.3533L339.997 82.9195ZM347.176 72.8026C348.706 68.6812 349.466 64.2289 349.466 59.4545H347.466C347.466 64.0136 346.741 68.2279 345.301 72.1065L347.176 72.8026ZM349.466 59.4545C349.466 54.6801 348.706 50.2136 347.177 46.0634L345.3 46.7548C346.741 50.6652 347.466 54.8956 347.466 59.4545H349.466ZM347.177 46.0634C345.635 41.8776 343.245 38.4648 340.002 35.857L338.748 37.4157C341.686 39.7776 343.873 42.88 345.3 46.7548L347.177 46.0634ZM340.002 35.857C336.698 33.2015 332.524 31.9091 327.557 31.9091V33.9091C332.166 33.9091 335.87 35.1016 338.748 37.4157L340.002 35.857ZM327.557 31.9091C322.59 31.9091 318.415 33.2015 315.112 35.857L316.365 37.4157C319.244 35.1016 322.948 33.9091 327.557 33.9091V31.9091ZM315.112 35.857C311.868 38.4648 309.479 41.8776 307.937 46.0634L309.813 46.7548C311.241 42.88 313.427 39.7776 316.365 37.4157L315.112 35.857ZM307.937 46.0634C306.408 50.2136 305.648 54.6801 305.648 59.4545H307.648C307.648 54.8956 308.373 50.6652 309.813 46.7548L307.937 46.0634ZM305.648 59.4545C305.648 64.2289 306.408 68.6812 307.938 72.8026L309.812 72.1065C308.373 68.2279 307.648 64.0136 307.648 59.4545H305.648ZM307.938 72.8026C309.481 76.9593 311.871 80.3422 315.117 82.9195L316.361 81.3533C313.424 79.0214 311.239 75.9498 309.812 72.1065L307.938 72.8026ZM315.117 82.9195C318.42 85.5425 322.593 86.8182 327.557 86.8182V84.8182C322.945 84.8182 319.239 83.6393 316.361 81.3533L315.117 82.9195ZM375.568 94H374.568V95H375.568V94ZM375.568 24.1818V23.1818H374.568V24.1818H375.568ZM385.932 24.1818H386.932V23.1818H385.932V24.1818ZM385.932 35.0909H384.932V36.0909H385.932V35.0909ZM386.841 35.0909V36.0909H387.524L387.772 35.4545L386.841 35.0909ZM393.886 26.4091L394.423 27.2531L394.428 27.2495L393.886 26.4091ZM417.068 26.4091L416.504 27.2348L416.513 27.2411L417.068 26.4091ZM424.295 35.0909L423.388 35.5114L423.657 36.0909H424.295V35.0909ZM425.023 35.0909V36.0909H425.643L425.919 35.5351L425.023 35.0909ZM433.068 26.5L433.578 27.3601L433.584 27.3569L433.068 26.5ZM461.25 29.1364L460.548 29.8489L460.551 29.8516L461.25 29.1364ZM467.205 94V95H468.205V94H467.205ZM456.477 94H455.477V95H456.477V94ZM452.25 36.2273L451.633 37.0139L451.633 37.0139L452.25 36.2273ZM430.886 37.3636L431.623 38.0397L431.627 38.0359L430.886 37.3636ZM426.841 94V95H427.841V94H426.841ZM415.932 94H414.932V95H415.932V94ZM412.068 36.5909L411.378 37.3149L411.383 37.3191L412.068 36.5909ZM394.295 35.1364L393.773 34.2836L393.768 34.2866L394.295 35.1364ZM388.477 41.3182L387.606 40.8274L387.604 40.8308L388.477 41.3182ZM386.295 94V95H387.295V94H386.295ZM376.568 94V24.1818H374.568V94H376.568ZM375.568 25.1818H385.932V23.1818H375.568V25.1818ZM384.932 24.1818V35.0909H386.932V24.1818H384.932ZM385.932 36.0909H386.841V34.0909H385.932V36.0909ZM387.772 35.4545C389.153 31.9165 391.368 29.1947 394.423 27.2531L393.35 25.5651C389.92 27.7447 387.438 30.8108 385.909 34.7274L387.772 35.4545ZM394.428 27.2495C397.482 25.2802 401.18 24.2727 405.568 24.2727V22.2727C400.865 22.2727 396.775 23.3562 393.344 25.5687L394.428 27.2495ZM405.568 24.2727C410.022 24.2727 413.646 25.2823 416.504 27.2348L417.632 25.5834C414.369 23.354 410.326 22.2727 405.568 22.2727V24.2727ZM416.513 27.2411C419.435 29.189 421.73 31.9329 423.388 35.5114L425.203 34.6704C423.407 30.7944 420.883 27.7504 417.623 25.577L416.513 27.2411ZM424.295 36.0909H425.023V34.0909H424.295V36.0909ZM425.919 35.5351C427.618 32.1079 430.163 29.3862 433.578 27.3601L432.558 25.6399C428.822 27.8562 426.003 30.8618 424.127 34.6467L425.919 35.5351ZM433.584 27.3569C436.976 25.316 441.077 24.2727 445.932 24.2727V22.2727C440.786 22.2727 436.312 23.3809 432.553 25.6431L433.584 27.3569ZM445.932 24.2727C451.946 24.2727 456.789 26.1469 460.548 29.8489L461.952 28.4238C457.772 24.3077 452.402 22.2727 445.932 22.2727V24.2727ZM460.551 29.8516C464.252 33.4681 466.205 39.2011 466.205 47.2727H468.205C468.205 38.9201 466.187 32.5622 461.949 28.4211L460.551 29.8516ZM466.205 47.2727V94H468.205V47.2727H466.205ZM467.205 93H456.477V95H467.205V93ZM457.477 94V47.2727H455.477V94H457.477ZM457.477 47.2727C457.477 41.9548 456.02 37.9149 452.867 35.4407L451.633 37.0139C454.117 38.9639 455.477 42.2876 455.477 47.2727H457.477ZM452.867 35.4407C449.861 33.0809 446.322 31.9091 442.295 31.9091V33.9091C445.905 33.9091 449.003 34.9494 451.633 37.0139L452.867 35.4407ZM442.295 31.9091C437.173 31.9091 433.074 33.4673 430.146 36.6913L431.627 38.0359C434.093 35.3205 437.6 33.9091 442.295 33.9091V31.9091ZM430.15 36.6876C427.261 39.836 425.841 43.8154 425.841 48.5455H427.841C427.841 44.2452 429.118 40.77 431.623 38.0397L430.15 36.6876ZM425.841 48.5455V94H427.841V48.5455H425.841ZM426.841 93H415.932V95H426.841V93ZM416.932 94V46.1818H414.932V94H416.932ZM416.932 46.1818C416.932 41.9736 415.556 38.5 412.754 35.8627L411.383 37.3191C413.732 39.5303 414.932 42.4507 414.932 46.1818H416.932ZM412.758 35.867C409.97 33.2099 406.392 31.9091 402.114 31.9091V33.9091C405.957 33.9091 409.015 35.0628 411.378 37.3148L412.758 35.867ZM402.114 31.9091C399.138 31.9091 396.351 32.7045 393.773 34.2836L394.818 35.9891C397.088 34.5986 399.514 33.9091 402.114 33.9091V31.9091ZM393.768 34.2866C391.221 35.8667 389.167 38.0555 387.606 40.8274L389.349 41.8089C390.757 39.3081 392.582 37.3757 394.823 35.9862L393.768 34.2866ZM387.604 40.8308C386.055 43.6066 385.295 46.7942 385.295 50.3636H387.295C387.295 47.0846 387.991 44.2419 389.35 41.8055L387.604 40.8308ZM385.295 50.3636V94H387.295V50.3636H385.295ZM386.295 93H375.568V95H386.295V93ZM498.682 91L498.156 91.8504L498.162 91.8542L498.682 91ZM487.455 78.4545L486.554 78.8896L486.557 78.8957L487.455 78.4545ZM487.455 40.7273L486.553 40.2941L486.552 40.2962L487.455 40.7273ZM498.455 27.9091L499 28.7469L499.002 28.7461L498.455 27.9091ZM525.773 25.0909L526.096 24.1447L526.096 24.1447L525.773 25.0909ZM535.455 31L534.771 31.7295L534.775 31.7333L535.455 31ZM542.409 41.7273L543.341 41.3657L543.341 41.3657L542.409 41.7273ZM545 62.7273V63.7273H546V62.7273H545ZM491.182 62.7273H490.182V63.7273H491.182V62.7273ZM491.182 53.4545V52.4545H490.182V53.4545H491.182ZM534.091 53.4545V54.4545H535.091V53.4545H534.091ZM531.727 42.9091L530.833 43.3563L530.836 43.3633L531.727 42.9091ZM525.091 35.5909L524.559 36.4379L524.563 36.4404L525.091 35.5909ZM503.909 36.0909L504.469 36.9192L504.471 36.918L503.909 36.0909ZM496.773 44.2727L495.877 43.8287L495.877 43.8287L496.773 44.2727ZM497 74.6818L496.104 75.1261L496.109 75.135L497 74.6818ZM504.682 83L504.178 83.8638L504.184 83.8673L504.682 83ZM523.727 84.6364L524.055 85.5812L524.062 85.5787L523.727 84.6364ZM529.682 81L530.376 81.7201L530.382 81.7136L529.682 81ZM533.545 74.9091L533.816 73.9463L532.932 73.6981L532.609 74.558L533.545 74.9091ZM543.909 77.8182L544.864 78.1146L545.169 77.1331L544.179 76.8554L543.909 77.8182ZM538.409 87.0909L539.124 87.7898L539.128 87.7856L538.409 87.0909ZM528.864 93.2727L529.222 94.2063L529.229 94.2038L528.864 93.2727ZM516.091 94.4545C509.514 94.4545 503.898 93.0043 499.202 90.1458L498.162 91.8542C503.223 94.9351 509.213 96.4545 516.091 96.4545V94.4545ZM499.208 90.1496C494.527 87.2533 490.91 83.217 488.352 78.0134L486.557 78.8957C489.272 84.4194 493.14 88.7467 498.156 91.8504L499.208 90.1496ZM488.355 78.0195C485.826 72.785 484.545 66.6661 484.545 59.6364H482.545C482.545 66.9097 483.871 73.3362 486.554 78.8896L488.355 78.0195ZM484.545 59.6364C484.545 52.607 485.826 46.4559 488.357 41.1584L486.552 40.2962C483.871 45.9078 482.545 52.3627 482.545 59.6364H484.545ZM488.356 41.1605C490.92 35.8259 494.47 31.6992 499 28.7469L497.909 27.0713C493.045 30.2402 489.262 34.659 486.553 40.2941L488.356 41.1605ZM499.002 28.7461C503.548 25.7736 508.868 24.2727 515 24.2727V22.2727C508.526 22.2727 502.816 23.8627 497.907 27.0721L499.002 28.7461ZM515 24.2727C518.523 24.2727 522.005 24.8595 525.449 26.0371L526.096 24.1447C522.45 22.8981 518.75 22.2727 515 22.2727V24.2727ZM525.449 26.0371C528.852 27.2005 531.958 29.0929 534.771 31.7295L536.138 30.2705C533.133 27.4526 529.784 25.4056 526.096 24.1447L525.449 26.0371ZM534.775 31.7333C537.552 34.3082 539.793 37.7472 541.477 42.0888L543.341 41.3657C541.57 36.7982 539.175 33.0858 536.134 30.2667L534.775 31.7333ZM541.477 42.0888C543.146 46.3945 544 51.7483 544 58.1818H546C546 51.585 545.126 45.9692 543.341 41.3657L541.477 42.0888ZM544 58.1818V62.7273H546V58.1818H544ZM545 61.7273H491.182V63.7273H545V61.7273ZM492.182 62.7273V53.4545H490.182V62.7273H492.182ZM491.182 54.4545H534.091V52.4545H491.182V54.4545ZM535.091 53.4545C535.091 49.3788 534.275 45.7045 532.618 42.4549L530.836 43.3633C532.331 46.2955 533.091 49.6515 533.091 53.4545H535.091ZM532.622 42.4619C530.995 39.209 528.658 36.6289 525.618 34.7414L524.563 36.4404C527.282 38.1287 529.368 40.4274 530.833 43.3563L532.622 42.4619ZM525.623 34.7439C522.592 32.8415 519.037 31.9091 515 31.9091V33.9091C518.72 33.9091 521.893 34.7646 524.559 36.4379L525.623 34.7439ZM515 31.9091C510.554 31.9091 506.655 33.0155 503.347 35.2638L504.471 36.918C507.405 34.9239 510.9 33.9091 515 33.9091V31.9091ZM503.349 35.2626C500.114 37.451 497.62 40.3111 495.877 43.8287L497.669 44.7167C499.259 41.5071 501.523 38.9126 504.469 36.9192L503.349 35.2626ZM495.877 43.8287C494.14 47.3339 493.273 51.0924 493.273 55.0909H495.273C495.273 51.3924 496.072 47.9388 497.669 44.7167L495.877 43.8287ZM493.273 55.0909V61.2727H495.273V55.0909H493.273ZM493.273 61.2727C493.273 66.6566 494.201 71.2874 496.104 75.1261L497.896 74.2376C496.163 70.7429 495.273 66.4343 495.273 61.2727H493.273ZM496.109 75.135C498.037 78.9289 500.726 81.8504 504.178 83.8638L505.186 82.1362C502.092 80.3314 499.66 77.7075 497.891 74.2287L496.109 75.135ZM504.184 83.8673C507.629 85.8452 511.609 86.8182 516.091 86.8182V84.8182C511.906 84.8182 508.28 83.9123 505.18 82.1327L504.184 83.8673ZM516.091 86.8182C519.002 86.8182 521.66 86.4113 524.055 85.5812L523.4 83.6915C521.249 84.4372 518.816 84.8182 516.091 84.8182V86.8182ZM524.062 85.5787C526.492 84.7155 528.601 83.4304 530.376 81.7201L528.988 80.2799C527.429 81.7817 525.569 82.9208 523.393 83.6941L524.062 85.5787ZM530.382 81.7136C532.164 79.9644 533.527 77.8061 534.482 75.2602L532.609 74.558C531.746 76.8606 530.533 78.7629 528.981 80.2864L530.382 81.7136ZM533.275 75.8719L543.639 78.781L544.179 76.8554L533.816 73.9463L533.275 75.8719ZM542.954 77.5218C541.91 80.8864 540.158 83.8412 537.69 86.3962L539.128 87.7856C541.812 85.0073 543.727 81.7803 544.864 78.1146L542.954 77.5218ZM537.694 86.3921C535.227 88.917 532.168 90.9032 528.499 92.3417L529.229 94.2038C533.135 92.6726 536.44 90.5375 539.124 87.7897L537.694 86.3921ZM528.505 92.3392C524.849 93.7432 520.716 94.4545 516.091 94.4545V96.4545C520.921 96.4545 525.303 95.7114 529.222 94.2063L528.505 92.3392Z" fill="white"/>
</svg>
